<?xml version="1.0" encoding="UTF-8" standalone="no"?>
<!-- Created with Inkscape (http://www.inkscape.org/) -->

<svg
   xmlns:dc="http://purl.org/dc/elements/1.1/"
   xmlns:cc="http://creativecommons.org/ns#"
   xmlns:rdf="http://www.w3.org/1999/02/22-rdf-syntax-ns#"
   xmlns:svg="http://www.w3.org/2000/svg"
   xmlns="http://www.w3.org/2000/svg"
   xmlns:sodipodi="http://sodipodi.sourceforge.net/DTD/sodipodi-0.dtd"
   xmlns:inkscape="http://www.inkscape.org/namespaces/inkscape"
   width="1280"
   height="720"
   id="svg2"
   version="1.1"
   inkscape:version="0.48.3.1 r9886"
   sodipodi:docname="New document 1">
  <defs
     id="defs4" />
  <sodipodi:namedview
     id="base"
     pagecolor="#ffffff"
     bordercolor="#666666"
     borderopacity="1.0"
     inkscape:pageopacity="0.0"
     inkscape:pageshadow="2"
     inkscape:zoom="1.979899"
     inkscape:cx="590.55017"
     inkscape:cy="603.21452"
     inkscape:document-units="px"
     inkscape:current-layer="layer1"
     showgrid="false"
     inkscape:window-width="1267"
     inkscape:window-height="890"
     inkscape:window-x="65"
     inkscape:window-y="24"
     inkscape:window-maximized="0" />
  <metadata
     id="metadata7">
    <rdf:RDF>
      <cc:Work
         rdf:about="">
        <dc:format>image/svg+xml</dc:format>
        <dc:type
           rdf:resource="http://purl.org/dc/dcmitype/StillImage" />
        <dc:title></dc:title>
      </cc:Work>
    </rdf:RDF>
  </metadata>
  <g
     inkscape:label="Layer 1"
     inkscape:groupmode="layer"
     id="layer1"
     transform="translate(0,-332.36218)">
    <path
       style="fill:#000000"
       d="m 466.95854,989.18356 c -2.28686,-2.6782 -6.81568,-11.31525 -6.81568,-12.9984 0,-2.5284 2.84945,0.5178 5.64524,6.03502 1.36907,2.70174 2.71092,4.69056 2.98187,4.4196 0.27096,-0.27095 0.68109,-12.8032 0.91142,-27.84943 0.23032,-15.04624 0.85193,-35.45679 1.38136,-45.35679 0.52942,-9.9 1.10153,-30.15 1.27135,-45 l 0.30876,-27 -17,-1.19 c -39.71605,-2.78011 -111.30066,-4.07343 -135.5,-2.44807 -8.47422,0.56917 -9.50046,0.84518 -9.50424,2.55615 -0.006,2.66778 -2.18576,3.13399 -2.97829,0.63697 -0.6465,-2.03694 -1.08998,-2.05511 -50.33486,-2.06216 -27.32543,-0.004 -52.72011,-0.29398 -56.43261,-0.6446 -6.31561,-0.59647 -6.75,-0.50753 -6.75,1.38211 0,1.444 0.85502,2.1906 3,2.6196 1.65,0.33 3,1.1175 3,1.75 0,1.78425 -12.03696,-0.93583 -15.5309,-3.50962 -1.91977,-1.4142 -1.88768,-1.5349 1.2809,-4.81807 1.7875,-1.85214 3.25,-3.9086 3.25,-4.56992 0,-0.66131 1.05,-1.20239 2.33333,-1.20239 1.92593,0 2.33334,0.52381 2.33334,3 0,1.65 0.2713,3.2713 0.60289,3.60289 0.33159,0.33159 25.80764,0.26999 56.61345,-0.1369 l 56.01057,-0.73979 0.30321,-2.53598 c 0.43379,-3.62816 2.80321,-4.07069 2.80321,-0.52355 l 0,2.83333 55.75,0.0314 c 42.0219,0.0237 61.89462,0.45377 80.70339,1.74661 14.35721,0.98687 25.32688,1.34172 25.83293,0.83567 1.0732,-1.0732 0.53344,-139.62854 -0.54815,-140.70937 -0.41901,-0.41872 -4.91901,-0.11848 -10,0.66719 -14.81725,2.29119 -145.0521,2.00372 -191.73817,-0.42323 -23.55009,-1.22424 -40.94313,-1.6295 -51.67007,-1.20393 -17.17811,0.68151 -55.32993,-0.29796 -55.32993,-1.42048 0,-1.30689 83.6105,-0.97566 114,0.45161 31.71768,1.48966 169.93995,2.31869 177.5,1.06461 2.2,-0.36495 6.98039,-1.11678 10.62309,-1.67075 l 6.62309,-1.00722 -0.32278,-17.68106 c -0.17753,-9.72458 -0.34664,-17.90605 -0.3758,-18.18105 -0.0292,-0.275 -1.80622,1.525 -3.94903,4 -4.66113,5.38372 -6.54554,4.69549 -2.62674,-0.95935 5.30708,-7.65812 7.43052,-7.76717 10.52817,-0.54065 1.07092,2.49837 2.63403,4.80607 3.47357,5.12823 2.37587,0.91171 1.7962,2.37177 -0.94163,2.37177 -1.60497,0 -2.91637,-0.85787 -3.75,-2.4531 -1.09559,-2.09651 -1.24359,-0.67921 -1.0181,9.75 0.33759,15.61351 0.87924,19.05404 2.87894,18.28668 0.83644,-0.32097 4.40899,-0.58358 7.93901,-0.58358 5.25369,0 6.41821,-0.29438 6.41821,-1.62244 0,-1.34023 -0.26513,-1.40241 -1.52417,-0.3575 -2.64532,2.19542 -2.86048,0.16592 -0.37009,-3.49082 3.30325,-4.85027 4.89426,-4.55388 4.89426,0.91174 0,2.44254 0.50841,4.7552 1.12979,5.13924 1.10892,0.68535 91.93212,2.81194 115.24298,2.69837 8.87988,-0.0433 12.08672,-0.40076 12.72153,-1.41822 0.98696,-1.58186 3.58519,-0.35367 5.33887,2.52371 0.86813,1.4244 0.50806,2.20261 -1.93317,4.17821 -3.47534,2.81245 -4.5,3.02597 -4.5,0.93771 0,-0.87613 -0.93581,-1.51791 -2.25,-1.54307 -12.84779,-0.2459 -35.15195,-1.98927 -35.64441,-2.78608 -0.39061,-0.63202 -13.22627,-1.23631 -34.1159,-1.60612 -18.41933,-0.32609 -38.26934,-0.83206 -44.11114,-1.12439 -10.0859,-0.50471 -10.64842,-0.42837 -11.15638,1.51407 -0.67303,2.57367 -2.72217,2.68852 -2.72217,0.15258 0,-2.48368 -1.95683,-3.13889 -8.83179,-2.95716 -3.11751,0.0824 -4.43071,0.3373 -2.91821,0.56642 4.0676,0.61619 3.33739,2.28376 -1,2.28368 l -3.75,-7e-5 0.34799,70.75007 c 0.19139,38.91254 0.48175,70.89043 0.64523,71.06197 0.16349,0.17155 11.70689,0.95134 25.65202,1.73287 33.41395,1.87263 120.21121,2.02157 119.60254,0.20523 -0.23039,-0.6875 -1.73039,-1.17335 -3.33333,-1.07966 -15.87014,0.92757 -43.33262,1.27108 -43.77975,0.54761 -0.31988,-0.51758 9.33419,-1.24602 22.65393,-1.70932 30.10839,-1.04727 28.39275,-1.12032 31.73555,1.35112 3.74138,2.76613 3.97582,2.71543 3.97582,-0.85975 0,-2 0.5,-3 1.5,-3 1,0 1.5,1 1.5,3 0,2.81404 0.23246,2.99511 3.75,2.92105 2.0625,-0.0434 3.1875,-0.30592 2.5,-0.58333 -1.90781,-0.76982 -1.49841,-2.75572 1.06445,-5.16341 2.71412,-2.54978 4.24881,-2.75481 5.04718,-0.67431 0.48034,1.25174 3.51849,1.51163 18.35699,1.57029 9.77976,0.0387 18.68138,0.45702 19.78138,0.92971 1.21448,0.52188 -5.51256,0.88703 -17.12756,0.92971 -16.55479,0.0608 -19.31215,0.29374 -20.5,1.73157 -1.27675,1.54545 1.3499,1.61315 37.67223,0.97093 23.32274,-0.41237 45.67065,-0.28613 55.5,0.31352 9.05043,0.55213 25.12246,1.1611 35.71562,1.35326 l 19.26029,0.3494 -0.26029,-2.45504 c -0.19857,-1.87285 0.27328,-2.5411 1.98971,-2.81792 1.6482,-0.26582 2.25,0.12826 2.25,1.47337 0,1.07353 1.45646,2.62061 3.50639,3.72457 1.92851,1.03857 3.35494,2.34694 3.16983,2.90747 -0.53974,1.63451 -7.99975,6.44959 -10.04866,6.48594 -1.51494,0.0269 -1.64489,-0.24097 -0.68061,-1.40286 0.84458,-1.01766 0.8932,-1.99408 0.16687,-3.35124 -1.30101,-2.43097 -8.4494,-3.17825 -31.11382,-3.25257 -9.075,-0.0298 -22.35,-0.43448 -29.5,-0.89938 -7.15,-0.46491 -32.6875,-0.5985 -56.75,-0.29687 l -43.75,0.5484 0,4.4272 c 0,5.74082 -2.37343,5.31373 -2.80444,-0.50464 l -0.30444,-4.10974 -53.69556,-0.0687 c -47.86026,-0.0613 -84.57963,-1.0273 -98.44556,-2.58992 l -4.75,-0.53531 -0.0292,21.78445 c -0.016,11.98144 -0.4528,27.57606 -0.97057,34.6547 -1.35812,18.56758 -3.32183,79.34936 -2.62245,81.1719 0.47193,1.22984 1.01307,1.31901 2.65894,0.43817 1.13653,-0.60825 3.05571,-0.94513 4.26483,-0.74862 1.96648,0.3196 1.80207,0.60082 -1.55832,2.66554 -2.25215,1.38379 -4.00951,3.36848 -4.38788,4.9555 -0.68044,2.85396 -2.16089,5.14725 -3.32284,5.14725 -0.39741,0 -1.395,-0.7875 -2.21686,-1.75 z"
       id="path3244" />
    <path
       style="fill:#000000"
       d="m 802.5781,847.03834 c 0.3043,-0.49236 -0.11914,-1.15324 -0.94098,-1.46861 -0.90766,-0.3483 -1.49426,0.003 -1.49426,0.89521 0,1.61739 1.56262,1.98533 2.43524,0.5734 z"
       id="path3242" />
    <path
       style="fill:#000000"
       d="m 627.14286,841.05019 c 0,-0.48585 -0.9,-1.11872 -2,-1.40638 -1.29986,-0.33992 -2,-0.0307 -2,0.88337 0,0.77351 0.9,1.40638 2,1.40638 1.1,0 2,-0.39752 2,-0.88337 z"
       id="path3240" />
    <path
       style="fill:#000000"
       d="m 191.14286,837.27857 c 0,-2.58108 -0.055,-2.6052 -1.97642,-0.86635 -2.09814,1.89879 -1.85143,3.52134 0.53544,3.52134 0.89281,0 1.44098,-1.00999 1.44098,-2.65499 z"
       id="path3238" />
    <path
       style="fill:#000000"
       d="m 304.63849,886.9265 c -0.34231,-0.55389 0.0811,-1.27703 0.94099,-1.60699 1.14917,-0.44098 1.56338,-2.02214 1.56338,-5.96794 l 0,-5.36801 -2.9827,0.59654 -2.98271,0.59654 3.41555,-3.62154 c 5.13174,-5.44122 5.74485,-4.88431 5.37333,4.88079 l -0.32347,8.50234 2.75,-0.002 c 1.5125,-10e-4 2.75,0.39519 2.75,0.88104 0,1.92777 -9.38595,2.9192 -10.50437,1.10957 z"
       id="path3236" />
    <path
       style="fill:#000000"
       d="m 286.80953,882.26689 c -1.58896,-1.58895 -0.36606,-2.33333 3.83333,-2.33333 3.33333,0 4.5,0.38889 4.5,1.5 0,1.07246 -1.09259,1.5 -3.83333,1.5 -2.10834,0 -4.13334,-0.3 -4.5,-0.66667 z"
       id="path3234" />
    <path
       style="fill:#000000"
       d="m 634.64286,881.93356 c -0.34736,-0.56205 0.44795,-1 1.81598,-1 1.33871,0 3.84027,-0.28125 5.55902,-0.625 2.47436,-0.49487 3.125,-0.28667 3.125,1 0,1.28075 -1.04674,1.625 -4.94098,1.625 -2.71754,0 -5.2191,-0.45 -5.55902,-1 z"
       id="path3232" />
    <path
       style="fill:#000000"
       d="m 635.64339,877.51672 c -0.27529,-0.87074 -0.74028,-2.33341 -1.03331,-3.25038 -0.40608,-1.27071 -0.81038,-1.38962 -1.7,-0.5 -1.18423,1.18423 -4.76722,1.63718 -4.76722,0.60266 0,-0.31051 1.35,-1.70051 3,-3.08889 1.65,-1.38839 3,-3.19233 3,-4.00877 0,-2.62762 3.48983,-1.01497 3.62477,1.67501 0.0686,1.36797 0.29362,4.01761 0.5,5.88809 0.39022,3.53673 -1.68387,5.65668 -2.62424,2.68228 z"
       id="path3230" />
    <path
       style="fill:#000000"
       d="m 825.14286,854.4538 c 0,-0.26387 0.75783,-2.37376 1.68406,-4.68865 1.23098,-3.07651 1.3655,-4.31507 0.5,-4.60357 -1.68382,-0.56127 -1.47157,-3.22802 0.25692,-3.22802 0.79254,0 1.72208,0.45483 2.06565,1.01072 0.3954,0.63977 1.41627,0.45626 2.78152,-0.5 1.18627,-0.83089 3.06923,-1.50848 4.18436,-1.50575 1.76995,0.004 1.64641,0.31206 -0.97251,2.42256 l -3,2.41759 3.44617,3.57744 c 2.84003,2.94822 3.1152,3.57744 1.56445,3.57744 -1.03495,0 -2.95949,-1.0125 -4.27676,-2.25 -2.35393,-2.21138 -2.41941,-2.21668 -3.81445,-0.30887 -0.78068,1.06762 -1.41941,2.53012 -1.41941,3.25 0,0.71988 -0.675,1.30887 -1.5,1.30887 -0.825,0 -1.5,-0.21589 -1.5,-0.47976 z"
       id="path3228" />
    <path
       style="fill:#000000"
       d="m 609.52719,728.16825 c -0.61361,-0.40408 -2.06968,-2.61666 -3.23571,-4.91684 -1.16602,-2.30018 -2.57647,-4.46424 -3.13433,-4.80902 -1.5035,-0.92921 -1.22897,-2.50883 0.43602,-2.50883 0.79767,0 1.90899,0.7875 2.46959,1.75 0.76108,1.30669 1.02699,-0.0866 1.04969,-5.5 0.0361,-8.60495 1.96666,-9.94155 2.16659,-1.5 0.0749,3.1625 0.3312,4.7375 0.56955,3.5 0.60805,-3.1569 2.27401,-2.80895 2.39395,0.5 l 0.0997,2.75 0.76267,-2.5 c 0.76262,-2.49983 0.92434,-2.36392 2.37979,2 0.37758,1.1321 0.51965,1.0563 0.57923,-0.30902 0.12977,-2.97351 2.07895,-0.81432 2.07895,2.30294 0,7.2964 -4.40071,12.0164 -8.61567,9.24077 z"
       id="path3226" />
    <path
       style="fill:#000000"
       d="m 486.30901,702.05741 c -2.01297,-1.27602 0.94729,-2.12385 7.41564,-2.12385 6.63184,0 7.12402,1.49434 0.77864,2.36408 -5.89435,0.80791 -6.57215,0.78804 -8.19428,-0.24023 z"
       id="path3224" />
    <path
       style="fill:#000000"
       d="m 630.79785,701.10482 c -2.0531,-2.26865 -2.09122,-4.42701 -0.14464,-8.19128 1.74328,-3.37113 4.29184,-4.97998 7.88872,-4.97998 3.11472,0 4.52541,2.42571 4.00417,6.88524 l -0.39567,3.38524 20.24621,-0.64866 c 11.13542,-0.35676 27.67122,-1.07257 36.74622,-1.59069 42.91557,-2.45017 97,-2.40818 97,0.0753 0,0.50785 -15.86321,0.90959 -36.75,0.9307 -20.2125,0.0204 -42.6,0.47464 -49.75,1.00933 -7.15,0.53469 -25.78623,1.2191 -41.41384,1.5209 -22.45059,0.43357 -28.8459,0.85135 -30.47251,1.99067 -2.76654,1.93777 -4.96558,1.81554 -6.95866,-0.38679 z"
       id="path3222" />
    <path
       style="fill:#000000"
       d="m 638.58616,697.71105 c 0.85618,-1.22237 1.5567,-3.24737 1.5567,-4.5 0,-1.82773 -0.55295,-2.27749 -2.8,-2.27749 -3.68205,0 -5.2,1.6639 -5.2,5.7 0,2.83291 0.34583,3.3 2.4433,3.3 1.39121,0 3.11361,-0.95701 4,-2.22251 z"
       id="path3220" />
    <path
       style="fill:#000000"
       d="m 824.14286,688.0146 c 0,-0.50543 0.76743,-2.25612 1.70539,-3.89044 1.6655,-2.90196 1.64071,-3.06922 -1.05999,-7.15025 -1.52096,-2.29833 -2.60904,-4.93514 -2.41795,-5.85957 0.25002,-1.20951 1.14527,-0.48913 3.19288,2.56922 1.56499,2.3375 3.205,4.25 3.64446,4.25 0.43946,0 1.81606,-1.4283 3.05911,-3.17401 2.95718,-4.15297 3.68491,-1.87073 0.86063,2.69904 l -2.18089,3.52875 2.59818,3.40639 c 2.97143,3.89574 3.14355,4.53983 1.21319,4.53983 -0.76174,0 -2.17714,-1.20898 -3.14533,-2.68662 l -1.76034,-2.68662 -2.14223,2.68662 c -2.1811,2.73535 -3.56711,3.42218 -3.56711,1.76766 z"
       id="path3218" />
    <path
       style="fill:#000000"
       d="m 863.14286,688.0625 c 0,-0.4791 1.56795,-1.9416 3.48434,-3.25 5.27584,-3.60203 5.19757,-4.76286 -0.48294,-7.16281 -2.75077,-1.16216 -5.0014,-2.50404 -5.0014,-2.98195 0,-1.48212 10.25995,2.25942 11.44247,4.17277 1.22192,1.97711 -0.49874,5.05922 -4.24593,7.60551 -3.8699,2.62962 -5.19654,3.0423 -5.19654,1.61644 z"
       id="path3216" />
    <path
       style="fill:#000000"
       d="m 898.64286,687.93356 c -1.1,-0.47269 -3.575,-0.8972 -5.5,-0.94337 -4.51831,-0.10836 -8,-1.05419 -8,-2.17326 0,-0.48585 1.35,-0.88337 3,-0.88337 2.82585,0 3,-0.22878 3,-3.94098 0,-4.4145 -1.15742,-5.77919 -3.00914,-3.54801 -0.67966,0.81894 -2.0996,1.48899 -3.15541,1.48899 -1.51202,0 -1.02674,-0.84942 2.28521,-4 2.31268,-2.2 4.54323,-4 4.95679,-4 0.41355,0 1.06817,3.375 1.45472,7.5 0.61158,6.52644 0.9557,7.5 2.65106,7.5 2.44628,0 5.81677,1.75872 5.81677,3.03518 0,1.13888 -0.78622,1.13097 -3.5,-0.0352 z"
       id="path3214" />
    <path
       style="fill:#000000"
       d="m 849.64286,680.22049 c -1.1,-0.26458 -2.45,-0.94538 -3,-1.51289 -0.68556,-0.70738 0.72943,-0.83682 4.5,-0.41163 3.025,0.34111 7.4125,0.62412 9.75,0.6289 2.3375,0.005 4.25,0.45869 4.25,1.00869 0,1.00324 -11.62713,1.21848 -15.5,0.28693 z"
       id="path3212" />
    <path
       style="fill:#000000"
       d="m 478.34286,651.73356 c -1.45087,-1.45087 -1.60105,-8.4341 -0.2,-9.3 1.86493,-1.15259 1.12106,-4.5 -1,-4.5 -2.948,0 -6,-3.56067 -6,-7 0,-1.65 0.45,-3 1,-3 0.55,0 1,0.8632 1,1.91821 0,3.24106 1.12542,5.08179 3.10699,5.08179 1.35254,0 1.89301,-0.71376 1.89301,-2.5 0,-1.55556 0.56667,-2.5 1.5,-2.5 1.07246,0 1.5,1.09259 1.5,3.83333 0,4.88193 0.46565,5.27995 4.07219,3.48077 4.52847,-2.2591 5.92222,-0.89517 1.67781,1.6419 -3.48369,2.08237 -3.75,2.57541 -3.75,6.94278 0,4.16815 -1.23911,7.10122 -3,7.10122 -0.33,0 -1.14,-0.54 -1.8,-1.2 z"
       id="path3210" />
    <path
       style="fill:#000000"
       d="m 480.80514,645.68356 c -0.27741,-0.6875 -0.50439,-0.125 -0.50439,1.25 0,1.375 0.22698,1.9375 0.50439,1.25 0.27741,-0.6875 0.27741,-1.8125 0,-2.5 z"
       id="path3208" />
    <path
       style="fill:#000000"
       d="m 941.86975,646.32712 c -0.324,-0.324 -0.34483,-1.22562 -0.0463,-2.00361 0.29854,-0.77798 0.23822,-3.4456 -0.13404,-5.92803 l -0.67684,-4.51352 -5.08588,0.67466 c -6.19091,0.82126 -5.9383,-1.25491 0.27354,-2.24823 4.43227,-0.70874 4.41217,-0.63513 2.42262,-8.87483 -2.47708,-10.25879 -1.57208,-17.5 2.18715,-17.5 0.87823,0 3.1124,0.9367 4.96482,2.08156 2.52466,1.56033 3.36803,2.78169 3.36803,4.87755 0,1.5378 -0.65264,3.33764 -1.45031,3.99965 -1.23109,1.02172 -1.36961,0.70015 -0.91645,-2.12756 0.47147,-2.94192 0.16016,-3.5502 -2.664,-5.20526 -3.51192,-2.05811 -4.92332,-1.21362 -4.95393,2.9641 -0.0138,1.88914 3.64223,17.41109 4.23699,17.98828 0.13624,0.1322 2.6102,-0.22846 5.4977,-0.80148 3.72219,-0.73867 5.25639,-1.51257 5.27196,-2.65935 0.0597,-4.39887 8.09301,-16.7825 10.08729,-15.54997 0.50983,0.31509 0.0776,1.7788 -0.96056,3.25269 -6.48743,9.21048 -8.28527,19.56986 -3.92618,22.62309 1.22237,0.85618 3.91082,1.5567 5.97432,1.5567 3.18179,0 3.99465,-0.46961 5.35019,-3.09093 1.454,-2.81172 1.45632,-3.2479 0.0257,-4.82874 -1.68463,-1.86148 -2.15722,-6.08033 -0.68112,-6.08033 0.49038,0 1.17395,1.125 1.51905,2.5 0.71672,2.85563 1.79906,3.15717 3.58936,1 0.68469,-0.825 2.18992,-1.5 3.34495,-1.5 2.08098,0 2.07987,0.0141 -0.12244,1.5567 -3.03027,2.12249 -2.79326,3.96153 0.94049,7.29764 4.07866,3.64427 2.13996,5.11291 -2.07147,1.56922 l -3.07782,-2.58981 -1.00686,2.64822 c -0.55377,1.45653 -1.00685,3.06893 -1.00685,3.58313 0,0.51419 -0.45,0.9349 -1,0.9349 -0.55,0 -1,-0.765 -1,-1.7 0,-1.32222 -0.26667,-1.43333 -1.2,-0.5 -0.66,0.66 -3.28156,1.2 -5.82569,1.2 -5.54599,0 -8.97431,-2.92047 -8.97431,-7.64491 l 0,-3.016 -5.0257,1.54219 -5.0257,1.54218 0.63111,5.57834 c 0.47965,4.2395 0.28373,5.86664 -0.8163,6.77959 -0.79609,0.66069 -1.71252,0.93617 -2.03652,0.61217 z"
       id="path3206" />
    <path
       style="fill:#000000"
       d="m 815.80953,644.26689 c -1.20579,-1.20578 -0.69592,-2.28178 0.80781,-1.70475 0.81096,0.3112 2.75172,-0.49043 4.31279,-1.78138 l 2.83831,-2.3472 -0.40147,-10.5 c -0.4631,-12.11227 0.99961,-18.5 4.23628,-18.5 4.57321,0 5.92043,18.64094 1.84806,25.571 -1.75773,2.99118 -1.75401,3.11749 0.13268,4.50325 1.06762,0.78416 3.61512,1.42575 5.66111,1.42575 2.89902,0 4.27261,-0.65678 6.22415,-2.97605 1.3773,-1.63682 2.80305,-4.33682 3.16835,-6 0.93482,-4.25619 2.50526,-3.76416 2.50526,0.78492 0,5.00894 2.19655,8.10246 4.69143,6.6072 0.99471,-0.59617 2.70857,-2.73245 3.80857,-4.7473 1.1,-2.01485 2.56614,-3.66458 3.2581,-3.66607 0.69195,-10e-4 1.97831,1.7973 2.85858,3.9973 0.88026,2.2 1.97872,4 2.44101,4 0.46229,0 2.04184,-1.575 3.51011,-3.5 3.21419,-4.21402 5.12211,-4.43275 6.54186,-0.75 l 1.06016,2.75 4.97749,-5.38761 c 4.90908,-5.31357 6.2996,-5.63324 7.01381,-1.61239 0.5761,3.24329 6.09838,3.25685 8.64352,0.0212 2.51144,-3.19278 4.05722,-1.48554 1.78912,1.97601 -2.15122,3.28318 -7.74055,4.29182 -11.20474,2.022 -2.546,-1.6682 -2.67102,-1.63825 -5.79319,1.38788 -3.73053,3.61577 -7.52398,4.08363 -8.32342,1.02657 -0.51168,-1.95667 -0.71337,-1.89863 -3.80065,1.09368 -3.8376,3.71955 -6.40515,3.5986 -8.3177,-0.39181 l -1.36117,-2.83999 -2.96925,3.60222 c -3.42767,4.15835 -6.93344,4.71124 -9.21536,1.45334 l -1.50513,-2.14888 -3.58637,3.14888 c -3.94216,3.46125 -7.52559,3.98192 -11.51678,1.67335 -1.375,-0.79532 -3.05585,-1.73428 -3.73523,-2.08658 -0.67938,-0.3523 -2.6264,0.53005 -4.32673,1.96078 -3.08786,2.59826 -5.01367,3.19236 -6.27137,1.93465 z"
       id="path3204" />
    <path
       style="fill:#000000"
       d="m 829.12755,622.99243 c -0.0148,-8.2921 -0.99193,-12.4742 -2.38704,-10.21687 -1.06283,1.71969 -1.93584,16.67441 -1.15502,19.78546 0.69097,2.75302 0.77824,2.79097 2.13886,0.9302 0.96654,-1.32181 1.41363,-4.66698 1.4032,-10.49879 z"
       id="path3202" />
    <path
       style="fill:#000000"
       d="m 995.14286,642.33049 c 0,-0.33169 2.025,-2.85536 4.5,-5.60815 5.36494,-5.96702 5.97674,-10.39862 2.15164,-15.5833 -3.63773,-4.93061 -9.57677,-9.20548 -12.78914,-9.20548 -1.57438,0 -2.8625,-0.45 -2.8625,-1 0,-1.48207 5.6959,-1.21178 8.79966,0.41758 3.11727,1.63645 9.44578,8.0703 11.08218,11.26668 0.615,1.20134 1.1182,3.96517 1.1182,6.14184 0,3.29415 -0.7699,4.81392 -4.5927,9.06575 -3.96356,4.40842 -7.40734,6.5029 -7.40734,4.50508 z"
       id="path3200" />
    <path
       style="fill:#000000"
       d="m 518.55524,637.44047 c -0.34415,-1.3712 -0.975,-2.27722 -1.40189,-2.01339 -0.42689,0.26383 -1.09098,-3.29956 -1.47575,-7.91866 -1.01599,-12.19682 1.28109,-15.50786 6.77817,-9.77014 3.64779,3.80747 3.54244,6.38894 -0.11763,2.88237 -1.54259,-1.4779 -3.11759,-2.68709 -3.5,-2.68709 -0.99245,0 -0.83293,9.23449 0.18733,10.8443 1.24513,1.96462 6.70398,-1.02772 11.18695,-6.13227 2.78976,-3.17656 3.99129,-3.89488 5.5,-3.2881 1.82589,0.73434 1.80587,0.82438 -0.36975,1.66257 -2.63607,1.01559 -6.53004,8.88935 -5.59775,11.31886 0.33655,0.87705 1.43721,1.59464 2.44591,1.59464 1.0087,0 2.13056,0.47985 2.49302,1.06633 0.43438,0.70284 -0.65334,0.9585 -3.19098,0.75 -3.36322,-0.27633 -3.89002,-0.66404 -4.16643,-3.06633 -0.35241,-3.06271 -0.95034,-3.26902 -4.62362,-1.59537 -2.26074,1.03007 -2.4678,1.5695 -1.91924,5 0.69606,4.35291 -1.18823,5.4964 -2.22834,1.35228 z"
       id="path3198" />
    <path
       style="fill:#000000"
       d="m 499.14286,637.07234 c 0,-0.96441 10.32583,-5.13878 12.71143,-5.13878 2.84376,0 -0.55204,2.75769 -5.45152,4.42711 -5.19889,1.77144 -7.25991,1.97347 -7.25991,0.71167 z"
       id="path3196" />
    <path
       style="fill:#000000"
       d="m 541.12921,632.18356 c -0.008,-0.9625 -0.29373,-2.875 -0.63605,-4.25 -0.50383,-2.02376 -0.37427,-2.26827 0.68009,-1.28356 1.03563,0.96721 1.7708,0.71111 3.5883,-1.25 3.06027,-3.30209 5.07502,-3.16381 2.45389,0.16842 -2.71605,3.45289 -2.61439,4.36514 0.48644,4.36514 1.45136,0 2.2915,0.43284 1.94098,1 -0.33992,0.55 -1.94148,1 -3.55902,1 -1.61754,0 -2.94098,0.45 -2.94098,1 0,0.55 -0.45,1 -1,1 -0.55,0 -1.00614,-0.7875 -1.01365,-1.75 z"
       id="path3194" />
    <path
       style="fill:#000000"
       d="m 549.14286,633.44221 c 0,-0.27024 1.575,-2.55471 3.5,-5.07659 4.61727,-6.04896 4.50427,-8.26561 -0.52823,-10.36219 -2.30816,-0.96159 -2.2416,-1.01453 1.00543,-0.79981 6.52433,0.43144 7.2981,7.17501 1.52558,13.29567 -2.83261,3.00344 -5.50278,4.43146 -5.50278,2.94292 z"
       id="path3192" />
    <path
       style="fill:#000000"
       d="m 1082.1429,633.17519 c 0,-1.59766 3.7993,-2.21329 13.75,-2.22798 5.5091,-0.008 9.25,0.39077 9.25,0.98635 0,0.58706 -3.4583,1 -8.375,1 -4.6062,0 -9.7812,0.28125 -11.5,0.625 -1.8472,0.36943 -3.125,0.21267 -3.125,-0.38337 z"
       id="path3190" />
    <path
       style="fill:#000000"
       d="m 494.14286,632.03139 c 0,-1.12651 5.50399,-3.09783 8.64922,-3.09783 3.88055,0 2.65672,1.68553 -2.09204,2.88129 -5.37894,1.35443 -6.55718,1.39334 -6.55718,0.21654 z"
       id="path3188" />
    <path
       style="fill:#000000"
       d="m 1029.1429,631.0274 c 0,-0.99948 9.8065,-2.6207 10.6642,-1.76301 0.2948,0.29486 0.2395,1.01605 -0.1231,1.60264 -0.799,1.29284 -10.5411,1.44105 -10.5411,0.16037 z"
       id="path3186" />
    <path
       style="fill:#000000"
       d="m 1089.6546,628.95244 c -0.3335,-0.53961 -0.8769,-4.81461 -1.2076,-9.5 -0.3306,-4.68538 -0.7336,-8.51888 -0.8955,-8.51888 -0.1618,0 -1.8988,0.94669 -3.8599,2.10375 -2.1233,1.25279 -4.27,1.8293 -5.3071,1.42526 -1.4375,-0.56004 -1.2029,-0.90684 1.3441,-1.98638 1.6971,-0.71934 4.2674,-2.8179 5.7118,-4.66346 1.8273,-2.33486 2.9442,-3.03748 3.6718,-2.30986 0.8645,0.86452 2.911,16.3111 3.0049,22.68069 0.028,1.891 -1.4784,2.3613 -2.4625,0.76888 z"
       id="path3184" />
    <path
       style="fill:#000000"
       d="m 1023.6385,622.9265 c -0.9558,-1.54663 1.6573,-2.13087 8.0374,-1.79696 3.5256,0.18452 5.9711,0.79536 6.2213,1.55402 0.5135,1.55655 -13.3013,1.79193 -14.2587,0.24294 z"
       id="path3182" />
    <path
       style="fill:#000000"
       d="m 863.14286,613.93356 c 0,-0.55 0.45,-1 1,-1 0.55,0 1,0.45 1,1 0,0.55 -0.45,1 -1,1 -0.55,0 -1,-0.45 -1,-1 z"
       id="path3180" />
    <path
       style="fill:#000000"
       d="m 477.79785,589.10482 c -3.50469,-3.87264 -1.15586,-14.05162 4.22186,-18.29598 3.07759,-2.42899 9.4786,-2.18285 13.60872,0.52331 4.6412,3.04103 2.85004,10.46552 -3.96928,16.45297 -4.30404,3.77899 -11.05408,4.42165 -13.8613,1.3197 z"
       id="path3178" />
    <path
       style="fill:#000000"
       d="m 491.50112,584.95877 c 6.99389,-7.74141 5.77863,-12.1257 -3.4314,-12.3794 -4.9659,-0.13679 -5.43664,0.0644 -7.6101,3.25207 -2.52071,3.69701 -3.10412,9.91476 -1.11676,11.90212 0.66,0.66 2.85764,1.2 4.88364,1.2 3.02472,0 4.32598,-0.71099 7.27462,-3.97479 z"
       id="path3176" />
    <path
       style="fill:#000000"
       d="m 345.9594,576.71054 c 0.39051,-4.9821 -1.29437,-10.18692 -3.08044,-9.51586 -0.67985,0.25543 -2.35757,0.81609 -3.72826,1.2459 -2.23199,0.69989 -2.3497,0.60983 -1.12755,-0.86277 0.75053,-0.90434 1.99862,-1.64425 2.77354,-1.64425 2.49536,0 2.46289,-2.45179 -0.12348,-9.32312 -3.01283,-8.00438 -3.57364,-19.3393 -1.00558,-20.32476 2.18908,-0.84003 9.32587,4.2046 10.05429,7.10686 0.91851,3.65963 -0.14785,5.52443 -1.38518,2.42234 -1.06213,-2.66282 -5.64067,-6.88132 -7.46864,-6.88132 -1.73953,0 -0.0784,10.12818 2.95638,18.02513 2.81651,7.32907 2.9354,7.46852 6.09546,7.1495 4.02474,-0.40631 4.26196,1.43825 0.29697,2.30911 -2.72115,0.59766 -2.85653,0.84179 -1.93417,3.48769 1.40224,4.02244 0.71872,10.44415 -1.14923,10.79723 -1.19515,0.22591 -1.43957,-0.60504 -1.17411,-3.99168 z"
       id="path3174" />
    <path
       style="fill:#000000"
       d="m 410.81372,576.21002 c -0.27895,-0.45136 1.25599,-3.44361 3.41098,-6.64944 6.39152,-9.50823 5.03384,-13.93625 -6.16943,-20.1213 -3.99066,-2.20314 -7.45056,-4.5969 -7.68866,-5.31946 -0.68869,-2.08994 15.33861,6.44191 17.67071,9.40669 3.15637,4.01268 2.85642,10.83556 -0.72367,16.46127 -3.1777,4.9934 -5.74217,7.44831 -6.49993,6.22224 z"
       id="path3172" />
    <path
       style="fill:#000000"
       d="m 364.1683,571.959 c -2.67185,-2.67185 -3.39928,-6.13361 -2.59067,-12.32867 1.4272,-10.93431 5.45205,-21.69677 8.11396,-21.69677 1.30844,0 1.31755,0.28389 0.0722,2.25 -1.9624,3.09813 -5.62092,18.23049 -5.62092,23.24926 0,4.67297 1.20242,6.60854 5.5,8.85352 l 3,1.56714 -3.25,0.04 c -1.94564,0.024 -4.04247,-0.75243 -5.22456,-1.93452 z"
       id="path3170" />
    <path
       style="fill:#000000"
       d="m 387.64773,570.36227 c -1.41132,-1.06651 -1.6483,-1.72203 -0.80987,-2.24021 0.83259,-0.51457 1.01241,-3.01792 0.60435,-8.4134 l -0.5809,-7.68087 -2.97413,1.53799 c -2.13824,1.10573 -3.27909,1.23301 -4.05922,0.45288 -0.78013,-0.78013 -0.47877,-1.0851 1.07227,-1.0851 1.2593,0 3.29866,-1.43034 4.89902,-3.43601 1.50792,-1.88981 3.1021,-3.21325 3.54264,-2.94098 0.44053,0.27226 0.80097,4.94191 0.80097,10.37699 0,5.43508 0.39768,10.12775 0.88373,10.42814 0.48606,0.3004 3.05256,-0.10654 5.70334,-0.90431 2.65078,-0.79777 5.00386,-1.26624 5.22905,-1.04104 0.77362,0.77362 -6.31714,4.50974 -8.56612,4.51347 -1.2375,0.002 -2.25,0.45374 -2.25,1.00374 0,1.38849 -1.15061,1.20042 -3.49513,-0.57129 z"
       id="path3168" />
    <path
       style="fill:#000000"
       d="m 651.83626,561.00404 c -2.0581,-4.62544 -2.31497,-4.84 -4.1642,-3.47831 -1.5228,1.12133 -3.68231,1.30046 -9.5,0.78804 -4.14106,-0.36475 -8.48347,-1.01623 -9.6498,-1.44775 -1.65568,-0.61255 -2.39536,-0.27115 -3.3739,1.55726 -1.48495,2.77466 -3.71282,3.53262 -6.90861,2.35042 -2.1753,-0.8047 -2.30129,-1.28923 -1.91452,-7.36323 0.27632,-4.33948 0.97761,-7.06547 2.10867,-8.19653 2.16316,-2.16315 3.87603,-0.63527 3.0082,2.68332 -0.58574,2.23987 -0.69077,2.2775 -1.34769,0.48275 -0.5785,-1.58052 -0.84522,-1.26608 -1.41871,1.67256 -1.06479,5.45609 -0.37827,8.38099 1.96716,8.38099 2.1156,0 3.88085,-4.13861 5.03914,-11.81421 0.87094,-5.77149 2.96086,-4.07669 2.96086,2.40108 l 0,5.41313 3.61454,0.30229 c 3.24854,0.27168 3.67614,0.0185 4.22287,-2.5 0.87406,-4.0264 2.22599,-5.6838 4.06167,-4.97939 1.80021,0.6908 2.09755,3.88061 0.61923,6.64288 -1.85001,3.45679 3.28355,3.61809 7.23169,0.22723 1.28847,-1.1066 1.75,-3.01528 1.75,-7.23721 0,-6.0437 2.50744,-10.99629 4.83805,-9.55589 1.79133,1.1071 1.37576,8.73262 -0.68535,12.57579 -2.16719,4.04096 -1.59213,8.19407 1.79283,12.94781 l 2.19066,3.07649 -2.12469,0 c -1.58228,0 -2.68465,-1.25846 -4.3181,-4.92952 z"
       id="path3166" />
    <path
       style="fill:#000000"
       d="m 654.11223,542.93356 c 0,-1.97894 -0.20204,-2.18736 -0.96937,-1 -0.53316,0.825 -0.96937,2.625 -0.96937,4 0,1.97894 0.20204,2.18736 0.96937,1 0.53316,-0.825 0.96937,-2.625 0.96937,-4 z"
       id="path3164" />
    <path
       style="fill:#000000"
       d="m 603.36537,561.37686 c -1.22238,-0.85619 -2.23009,-2.54369 -2.23936,-3.75 -0.0148,-1.92585 -0.27065,-1.79699 -2.0982,1.0567 -2.21767,3.46285 -5.27731,4.27588 -6.27796,1.66821 -0.97373,-2.53749 -0.69918,-8.41821 0.39301,-8.41821 0.55,0 1,1.575 1,3.5 0,4.70761 1.27924,4.40559 4.4811,-1.05796 1.46913,-2.50688 3.19939,-4.3842 3.84502,-4.17183 0.64563,0.21237 1.31011,2.46566 1.4766,5.00731 0.23294,3.55587 0.75497,4.76471 2.26452,5.24382 1.07899,0.34246 1.70371,1.04025 1.38826,1.55066 -0.80053,1.29528 -1.67062,1.16605 -4.23299,-0.6287 z"
       id="path3162" />
    <path
       style="fill:#000000"
       d="m 436.14286,560.04197 c 0,-0.49038 1.2375,-1.18675 2.75,-1.54749 1.5125,-0.36074 3.5375,-0.88985 4.5,-1.1758 3.13086,-0.93013 1.84285,1.38686 -1.39922,2.51705 -3.81492,1.32989 -5.85078,1.40165 -5.85078,0.20624 z"
       id="path3160" />
    <path
       style="fill:#000000"
       d="m 586.33093,558.30514 c -0.62306,-1.11334 -1.13189,-1.27149 -1.6087,-0.5 -1.12587,1.82169 -6.09516,1.29714 -8.94451,-0.94416 -2.04741,-1.61049 -2.63486,-2.94821 -2.63486,-6 0,-4.99006 1.77644,-5.15949 2.18963,-0.20884 0.23652,2.83377 0.95848,4.08071 3.03417,5.24049 2.45565,1.37207 2.8816,1.3641 4.3267,-0.081 0.8816,-0.8816 1.85264,-3.46482 2.15787,-5.74049 0.86185,-6.42556 3.29163,-5.46343 3.29163,1.3034 0,2.99254 0.45,5.7191 1,6.05902 1.49162,0.92187 1.20736,2.5 -0.45031,2.5 -0.79767,0 -1.8604,-0.73279 -2.36162,-1.62842 z"
       id="path3158" />
    <path
       style="fill:#000000"
       d="m 662.93542,558.93356 c -0.98725,-2.26829 -2.65065,-13.39429 -2.13046,-14.25 1.0171,-1.6731 2.28192,-0.56532 2.85748,2.50267 0.76171,4.06027 0.15986,13.78502 -0.72702,11.74733 z"
       id="path3156" />
    <path
       style="fill:#000000"
       d="m 671.37728,558.68356 c -1.46107,-1.8074 -2.74364,-12.18275 -1.40362,-11.35457 0.5795,0.35815 1.35505,2.6611 1.72344,5.11767 0.36838,2.45656 1.07794,4.21423 1.57679,3.90592 0.49885,-0.30831 2.04619,-2.80863 3.43852,-5.55628 2.76821,-5.46279 4.29908,-5.80883 5.75222,-1.30024 1.43403,4.44927 2.71831,5.56867 6.01021,5.23857 2.43118,-0.2438 3.22529,-0.96689 4.17439,-3.80107 1.46306,-4.36894 3.99363,-4.68577 3.99363,-0.5 0,2.39845 0.47708,3.06747 2.37927,3.33649 5.28954,0.74808 15.10949,-5.07501 16.6283,-9.86034 0.71659,-2.25776 3.21525,-2.11734 2.64864,0.14885 -0.18908,0.75625 -0.58546,2.8375 -0.88084,4.625 -0.50548,3.0589 -0.36207,3.25 2.4388,3.25 6.49678,0 8.37399,-7.06569 3.24096,-12.19872 -1.67468,-1.67468 -2.79232,-3.29743 -2.48364,-3.60611 0.76418,-0.76417 5.47033,2.8463 7.83035,6.0073 1.68616,2.25842 1.77595,3.03181 0.72255,6.22363 -0.66158,2.00461 -2.25587,4.33469 -3.54286,5.17796 -3.23249,2.11801 -8.65948,1.45398 -9.98497,-1.22174 l -1.04905,-2.11767 -4.97375,2.85951 c -3.86745,2.22348 -6.2396,2.86133 -10.66474,2.86768 -3.13004,0.004 -5.9691,0.45816 -6.30902,1.00816 -0.33992,0.55 -2.18693,1 -4.10447,1 -3.55455,0 -8.39553,-3.54636 -8.39553,-6.15033 0,-0.68268 -1.34009,0.87187 -2.97798,3.45455 -3.11876,4.91779 -4.11715,5.5122 -5.7876,3.44578 z"
       id="path3154" />
    <path
       style="fill:#000000"
       d="m 528.14811,556.04003 c -1.37211,-0.38179 -2.62673,-1.37948 -2.78804,-2.2171 -0.38812,-2.01534 2.81742,-5.94941 6.67815,-8.19591 l 3.10464,-1.80653 0,2.66704 0,2.66704 12,-0.72101 c 15.24059,-0.91571 15.93672,0.71659 0.9376,2.1985 -6.08432,0.60113 -11.35879,1.38935 -11.72104,1.75161 -0.9499,0.9499 1.88893,2.51665 4.59246,2.53458 1.28185,0.008 2.03408,0.46016 1.69098,1.01531 -0.68816,1.11347 -10.61369,1.18638 -14.49475,0.10647 z"
       id="path3152" />
    <path
       style="fill:#000000"
       d="m 533.14286,550.93356 c 0,-3.53246 -0.0549,-3.55429 -2.84699,-1.1327 -2.86158,2.48183 -2.72297,4.1327 0.34699,4.1327 2.11111,0 2.5,-0.46667 2.5,-3 z"
       id="path3150" />
    <path
       style="fill:#000000"
       d="m 478.64286,553.45908 c 15.58556,-1.78772 18.22541,-1.85093 16.77623,-0.40175 -0.68837,0.68837 -6.48064,1.25054 -14.95,1.45098 l -13.82623,0.32721 12,-1.37644 z"
       id="path3148" />
    <path
       style="fill:#000000"
       d="m 432.14286,552.93356 c 0,-0.55 2.025,-1.0675 4.5,-1.15 2.475,-0.0825 5.025,-0.195 5.66667,-0.25 0.64166,-0.055 1.35416,0.4625 1.58333,1.15 0.30289,0.90868 -1.24444,1.25 -5.66667,1.25 -3.38889,0 -6.08333,-0.44292 -6.08333,-1 z"
       id="path3146" />
    <path
       style="fill:#000000"
       d="m 474.47175,539.74827 c -2.49775,-1.2079 -3.53111,-4.28421 -2.63515,-7.84486 0.72132,-2.86663 6.03069,-10.96985 7.18763,-10.96985 2.10619,0 1.80138,1.59729 -0.88968,4.66225 -3.10736,3.53908 -4.4047,6.93677 -3.82162,10.00866 0.25723,1.35517 1.41197,1.90709 4.4567,2.13015 3.57306,0.26175 4.45981,-0.11524 6.79286,-2.88791 3.44841,-4.0982 3.02801,-6.94014 -1.34989,-9.12536 -2.59685,-1.29621 -3.04396,-1.86045 -1.84026,-2.32235 0.8745,-0.33558 2.98062,0.10897 4.68026,0.98789 2.58354,1.33599 3.09026,2.18702 3.09026,5.19 0,2.83915 -0.81367,4.40564 -3.88235,7.47432 -4.07083,4.07082 -7.38168,4.82829 -11.78876,2.69706 z"
       id="path3144" />
    <path
       style="fill:#000000"
       d="m 833.10315,528.89785 c -0.0218,-0.25536 -0.22111,-2.82813 -0.44283,-5.71728 -0.53007,-6.9073 -1.12038,-7.73721 -4.11006,-5.77829 -1.92684,1.26251 -2.4074,1.3054 -2.4074,0.21485 0,-0.7494 1.07125,-1.85063 2.38055,-2.44719 l 2.38055,-1.08465 -1.87275,-7.82587 c -1.95928,-8.18749 -2.2987,-12.09294 -1.28136,-14.74407 0.80893,-2.10804 2.00443,-1.99467 5.54398,0.52571 2.35677,1.67817 2.89751,2.732 2.65437,5.17299 -0.16794,1.68602 -0.86815,3.25024 -1.55602,3.47606 -0.77186,0.25338 -1.02951,-0.16578 -0.673,-1.09485 0.6589,-1.71706 -1.1606,-5.6617 -2.6115,-5.6617 -1.39548,0 -1.19259,3.24271 0.71055,11.35692 0.92146,3.92869 1.75127,7.26038 1.84402,7.40376 0.0927,0.14337 2.10902,-0.42393 4.48061,-1.26068 5.82433,-2.05494 6.40997,-1.01124 0.82004,1.46145 l -4.48903,1.98572 1.00893,5.56627 c 0.86222,4.75689 0.76544,5.80975 -0.66551,7.2407 -0.92094,0.92094 -1.6923,1.4655 -1.71414,1.21015 z"
       id="path3142" />
    <path
       style="fill:#000000"
       d="m 990.61364,523.48104 c -1.54001,-5.29745 -1.65641,-5.42002 -4.09278,-4.30994 -1.81589,0.82737 -3.66227,0.85211 -6.69285,0.0897 -2.30183,-0.5791 -6.14241,-0.8381 -8.53461,-0.57554 -3.43923,0.37746 -4.98929,0.004 -7.40678,-1.783 -2.79458,-2.06613 -3.16072,-2.11894 -4.26077,-0.61452 -1.40498,1.92141 -5.55346,2.17537 -7.28299,0.44584 -1.64693,-1.64693 -1.54755,-11.26667 0.13078,-12.65956 1.08882,-0.90364 1.24648,-0.0879 0.86714,4.48643 -0.33483,4.03762 -0.0858,5.82439 0.89638,6.43141 2.11352,1.30623 4.9057,-1.89905 4.9057,-5.63148 0,-1.79477 0.27314,-3.97503 0.60699,-4.84501 1.13919,-2.96869 2.39296,-1.58908 2.42481,2.66821 0.0367,4.90521 1.48584,7.23591 5.43178,8.73615 3.71091,1.41089 6.53305,0.4184 6.55007,-2.30354 0.0229,-3.66569 1.17919,-6.78567 2.36367,-6.37803 0.61748,0.21249 1.12268,2.3684 1.12268,4.79089 l 0,4.40453 4.12708,0.30149 c 6.11004,0.44635 7.37292,-1.32028 7.37292,-10.3139 0,-7.22852 1.26997,-10.24943 3.09649,-7.36571 1.06821,1.68649 1.05574,11.62827 -0.018,14.37812 -0.71711,1.83647 0.62693,9.54021 2.3989,13.75 0.52144,1.23882 0.27536,1.75 -0.84245,1.75 -1.05186,0 -2.10825,-1.82039 -3.16414,-5.45252 z"
       id="path3140" />
    <path
       style="fill:#000000"
       d="m 847.06594,520.01048 c -2.516,-2.51599 -2.91697,-3.66492 -2.87919,-8.25 0.0752,-9.12586 4.13973,-17.24307 8.32261,-16.62094 2.40361,0.35749 3.41068,2.64836 1.07311,2.44108 -2.93364,-0.26014 -5.77518,4.84404 -6.2349,11.19958 -0.50986,7.04879 0.60983,9.47868 5.57617,12.10111 l 3.71912,1.96386 -3.32692,0.0442 c -2.38117,0.0316 -4.15788,-0.78675 -6.25,-2.87888 z"
       id="path3138" />
    <path
       style="fill:#000000"
       d="m 887.14286,522.14579 c 0,-0.43328 1.33171,-2.34578 2.95936,-4.25 5.78802,-6.77155 3.72309,-12.48427 -6.86819,-19.00115 -4.92722,-3.03175 -6.91237,-5.56274 -3.34117,-4.25986 2.96633,1.0822 11.64734,6.89068 13.61826,9.112 1.02755,1.15809 2.09195,4.09014 2.36534,6.51565 0.45196,4.00975 0.15836,4.78495 -3.23462,8.54058 -3.53079,3.90817 -5.49898,5.10461 -5.49898,3.34278 z"
       id="path3136" />
    <path
       style="fill:#000000"
       d="m 862.38663,519.31383 c -1.92247,-0.84336 -0.42754,-2.38027 2.31525,-2.38027 2.34225,0 2.44098,-0.26787 2.44098,-6.62244 0,-5.70575 -0.20298,-6.45399 -1.46638,-5.40546 -2.97484,2.46889 -3.29984,0.42232 -0.4392,-2.76573 1.62545,-1.8115 3.39416,-3.02244 3.93047,-2.69099 0.53631,0.33146 0.97511,4.22856 0.97511,8.66021 0,8.71654 0.17871,8.89799 6.25,6.34602 1.08267,-0.45509 1.75,-0.294 1.75,0.42243 0,2.32478 -12.52843,5.85221 -15.75623,4.43623 z"
       id="path3134" />
    <path
       style="fill:#000000"
       d="m 942.66518,518.31302 c -0.89129,-0.89129 -1.88156,-2.92565 -2.20059,-4.52081 -0.88589,-4.42944 -1.89986,-4.25181 -3.77629,0.66153 -1.99299,5.21859 -4.98279,6.08989 -6.57019,1.91472 -1.26887,-3.33739 -1.25392,-8.4349 0.0248,-8.4349 0.55,0 1.00689,1.2375 1.01531,2.75 0.0308,5.53566 1.66387,5.91071 4.0094,0.92081 3.10031,-6.59562 5.00276,-6.16839 8.14538,1.82919 2.56073,6.51675 2.37659,7.90383 -0.64777,4.87946 z"
       id="path3132" />
    <path
       style="fill:#000000"
       d="m 911.93223,517.87549 c -2.36958,-1.3814 -4.99829,-10.94193 -3.00854,-10.94193 0.42946,0 1.44196,1.9125 2.25,4.25 1.06942,3.09361 2.01335,4.25 3.46917,4.25 1.47531,0 2.35283,-1.11496 3.34489,-4.25 0.73969,-2.3375 1.7173,-4.25 2.17245,-4.25 0.45516,0 1.35483,1.59765 1.99927,3.55033 0.64444,1.95268 2.02934,4.08593 3.07755,4.74055 2.46674,1.5405 2.42978,2.70912 -0.0857,2.70912 -1.09534,0 -2.53452,-0.86948 -3.19818,-1.93217 -1.17183,-1.8764 -1.27174,-1.86196 -3.46073,0.5 -2.43355,2.62584 -3.8898,2.93087 -6.56019,1.3741 z"
       id="path3130" />
    <path
       style="fill:#000000"
       d="m 999.89286,518.35816 c -0.4125,-0.41686 -0.75,-3.47293 -0.75,-6.79127 0,-4.22921 0.31525,-5.71808 1.05424,-4.97908 0.5798,0.57984 0.9173,3.63591 0.75,6.79127 -0.1673,3.15536 -0.6417,5.39594 -1.05424,4.97908 z"
       id="path3128" />
    <path
       style="fill:#000000"
       d="m 1005.8067,512.74242 c -0.3382,-2.85513 -0.3764,-5.4296 -0.085,-5.72104 0.8641,-0.86407 2.3875,2.21654 2.4292,4.91218 0.032,2.08229 0.495,1.66459 2.7693,-2.5 1.5018,-2.75 3.1788,-4.91044 3.7267,-4.80097 0.5478,0.10947 1.3521,1.98234 1.7874,4.16194 0.8331,4.1714 2.928,6.73952 4.6363,5.6837 0.5585,-0.34513 1.9029,-2.63387 2.9876,-5.08609 1.0847,-2.45222 2.4475,-4.45858 3.0285,-4.45858 1.3951,0 1.3551,5.57305 -0.059,8.21528 -1.0576,1.9761 -0.9236,2.0527 2.5929,1.48204 4.4312,-0.71908 9.7916,-4.59564 12.8206,-9.27167 1.2109,-1.86936 2.6517,-3.23611 3.2017,-3.03724 1.0827,0.39149 1.0886,0.93074 0.048,4.36159 -1.0075,3.32115 2.4768,2.96362 6.3464,-0.65121 2.3377,-2.18365 3.1448,-3.85313 3.2633,-6.75 0.225,-5.49632 0.2166,-5.6156 -0.573,-8.0925 -0.9981,-3.13089 1.755,-2.00133 3.2801,1.34577 2.7015,5.92931 0.3453,13.86903 -5.1179,17.24547 -3.652,2.25708 -9.7467,2.92518 -9.7467,1.06844 0,-0.59622 -1.7352,0.2903 -3.8561,1.97002 -2.1208,1.67973 -4.9333,3.46145 -6.25,3.95936 -1.9118,0.72298 -12.3754,0.90701 -16.1922,0.28479 -0.439,-0.0716 -1.3586,-1.46274 -2.0434,-3.09147 l -1.2451,-2.96133 -1.8641,3.46133 c -2.8319,5.25858 -5.1379,4.5808 -5.8853,-1.72981 z"
       id="path3126" />
    <path
       style="fill:#000000"
       d="m 471.28754,457.11729 c 0.20917,-1.99411 -0.82552,-4.34327 -3.54431,-8.04699 -4.81747,-6.56271 -3.75613,-8.183 1.39963,-2.13674 2.10949,2.47384 4.04215,4.27337 4.2948,3.99895 0.25265,-0.27442 1.43193,-2.42734 2.62062,-4.78427 2.63403,-5.22272 4.76702,-4.71041 2.45155,0.58882 -2.8232,6.46124 -2.79543,7.68025 0.20614,9.04786 1.98746,0.90554 2.4314,1.54413 1.63036,2.34517 -0.80104,0.80104 -1.77866,0.65661 -3.59028,-0.53041 -2.35334,-1.54197 -2.52392,-1.52275 -3.11873,0.35135 -0.94991,2.9929 -2.68654,2.37672 -2.34978,-0.83374 z"
       id="path3124" />
    <path
       style="fill:#000000"
       d="m 519.14286,454.93356 c 0,-0.55 0.63218,-1 1.40484,-1 1.06251,0 1.28613,-1.03564 0.91767,-4.25 -0.78222,-6.82388 -0.94553,-7.04312 -3.83571,-5.1494 -1.40207,0.91868 -2.84191,1.37762 -3.19966,1.01988 -0.81299,-0.813 5.6826,-7.62048 7.27135,-7.62048 0.67365,0 1.44948,2.41074 1.83704,5.70822 1.14613,9.7518 1.41654,10.29178 5.15386,10.29178 1.83292,0 3.61069,0.45 3.95061,1 0.38973,0.63059 -1.98962,1 -6.44098,1 -4.03935,0 -7.05902,-0.42778 -7.05902,-1 z"
       id="path3122" />
    <path
       style="fill:#000000"
       d="m 490.89286,452.24423 c -0.9625,-0.25152 -1.75,-0.87432 -1.75,-1.38399 0,-1.1847 12.69891,-1.22287 13.42974,-0.0404 1.04166,1.68545 -6.95084,2.66015 -11.67974,1.42436 z"
       id="path3120" />
    <path
       style="fill:#000000"
       d="m 326.32123,433.78596 c -0.13353,-3.38118 -0.47984,-6.53118 -0.76959,-7 -0.8369,-1.35412 -4.76609,-0.99086 -7.12063,0.65832 -1.43538,1.00538 -2.37487,1.15798 -2.80859,0.4562 -1.03467,-1.67412 1.42214,-3.85785 5.12092,-4.55175 3.97268,-0.74528 3.99695,-0.90853 1.39952,-9.41517 -3.7889,-12.40872 -2.07868,-22.64898 3.31945,-19.87583 3.519,1.8078 7.68055,6.11278 7.68055,7.94527 0,1.21813 -1.09271,0.60256 -3.88235,-2.18709 -4.43532,-4.43531 -5.65407,-4.76308 -6.44628,-1.73366 -0.71136,2.72024 -0.11864,6.36095 2.63401,16.17899 l 2.19462,7.82768 6.5,-0.67631 c 3.575,-0.37197 6.5,-0.74443 6.5,-0.82768 0,-0.0832 1.47334,-3.11506 3.27408,-6.73735 3.72504,-7.4931 8.31724,-12.47669 10.66622,-11.5753 1.90328,0.73035 2.06959,2.66128 0.22922,2.66128 -3.27954,0 -10.66952,13.90096 -10.66952,20.06996 0,3.93114 3.74841,7.86637 7.75,8.13626 3.49016,0.23539 4.22913,1.20407 1.66821,2.18679 -3.40408,1.30627 -6.66922,0.50982 -9.49513,-2.31609 -2.28298,-2.28297 -2.92308,-3.82355 -2.92308,-7.03518 0,-3.60638 -0.21522,-3.99693 -1.75,-3.17562 -0.9625,0.51507 -3.81866,1.24667 -6.34702,1.62579 l -4.59702,0.6893 0.91882,5.05524 c 1.02783,5.65499 0.38263,9.76355 -1.53325,9.76355 -0.86307,0 -1.34821,-1.97102 -1.51316,-6.1476 z"
       id="path3118" />
    <path
       style="fill:#000000"
       d="m 378.78987,437.68356 c 0.42077,-0.6875 2.24733,-3.19697 4.05901,-5.5766 2.58953,-3.40131 3.29398,-5.2832 3.29398,-8.79966 0,-7.25058 -4.42858,-13.62374 -9.46686,-13.62374 -3.29852,0 -3.26361,-1.52856 0.0539,-2.3612 3.07198,-0.77102 6.78849,1.64292 10.16295,6.60103 3.23444,4.75237 3.11209,12.86341 -0.28138,18.65392 -2.41978,4.12905 -5.0344,6.35625 -7.4619,6.35625 -0.64116,0 -0.79582,-0.53744 -0.35971,-1.25 z"
       id="path3116" />
    <path
       style="fill:#000000"
       d="m 358.14286,433.3839 c 0,-0.85231 0.66747,-2.8404 1.48326,-4.41796 1.30889,-2.53112 1.30961,-3.20123 0.006,-5.70034 -0.8124,-1.55762 -1.47987,-3.39454 -1.48326,-4.08204 -0.0104,-2.11705 1.85931,-1.38484 3.25221,1.27359 l 1.32224,2.52359 2.89679,-3.02359 c 4.59073,-4.79169 6.14897,-3.72437 2.33474,1.59919 l -3.31214,4.62277 2.25,1.4992 c 1.2375,0.82456 2.25,1.89431 2.25,2.37722 0,1.31466 -3.42023,1.0578 -4.84164,-0.36361 -0.98886,-0.98886 -1.43364,-0.93796 -2.18469,0.25 -0.51867,0.8204 -0.94994,2.27914 -0.95836,3.24164 -0.008,0.9625 -0.69031,1.75 -1.51531,1.75 -0.825,0 -1.5,-0.69735 -1.5,-1.54966 z"
       id="path3114" />
    <path
       style="fill:#000000"
       d="m 866.14286,430.33477 c 0,-0.32934 1.35,-1.85988 3,-3.40121 2.24053,-2.09297 3,-3.69854 3,-6.34219 0,-1.94688 -0.45,-3.81789 -1,-4.15781 -1.44621,-0.89381 -1.2281,-2.5 0.33948,-2.5 1.70458,0 3.66052,4.24332 3.66052,7.9413 0,3.18334 -4.80033,9.0587 -7.40121,9.0587 -0.87933,0 -1.59879,-0.26946 -1.59879,-0.59879 z"
       id="path3112" />
    <path
       style="fill:#000000"
       d="m 710.83036,429.28773 c -0.37812,-0.37813 -0.6875,-2.13125 -0.6875,-3.89584 0,-1.76458 -0.2899,-4.65785 -0.64423,-6.42948 -0.58288,-2.9144 -0.91619,-3.16677 -3.5,-2.65 -3.59226,0.71845 -3.77329,-1.07951 -0.2438,-2.42142 2.06782,-0.78618 2.48514,-1.4581 2.00316,-3.22525 -2.47156,-9.06183 -1.39361,-17.73218 2.20458,-17.73218 2.72658,0 7.18029,4.20656 7.18029,6.78184 0,3.05664 -1.18103,2.76607 -3.20349,-0.78816 -0.93692,-1.64653 -2.46469,-2.99368 -3.39504,-2.99368 -1.48355,0 -1.61937,0.8609 -1.10456,7.00156 0.32284,3.85086 0.88837,7.48921 1.25673,8.08523 0.44113,0.71377 2.72364,0.84528 6.687,0.38528 6.42256,-0.74542 7.56848,0.80425 1.49789,2.02565 -7.20527,1.4497 -7.00423,1.23056 -6.28626,6.85227 1.08861,8.52388 1.08799,8.92041 -0.0148,9.31321 -0.58438,0.20816 -1.37188,0.0691 -1.75,-0.30903 z"
       id="path3110" />
    <path
       style="fill:#000000"
       d="m 412.14286,425.93356 c 0,-0.55 2.27656,-1 5.05902,-1 3.11803,0 4.82189,0.38367 4.44098,1 -0.33992,0.55 -2.61648,1 -5.05902,1 -2.44254,0 -4.44098,-0.45 -4.44098,-1 z"
       id="path3108" />
    <path
       style="fill:#000000"
       d="m 651.14286,424.94775 c 0,-0.5422 1.82159,-2.19128 4.04798,-3.66464 2.82688,-1.87074 3.95809,-3.27762 3.75,-4.66386 -0.36014,-2.39915 -4.21349,-5.33662 -8.27064,-6.30485 l -2.97266,-0.70942 1.72266,2.6291 c 1.87755,2.86551 2.30431,6.69948 0.74571,6.69948 -2.40887,0 -6.03092,-10.25907 -4.05351,-11.48117 1.21721,-0.75228 10.78278,2.94705 13.14267,5.08272 3.80531,3.44376 1.65271,8.95195 -4.79647,12.27349 -2.6818,1.38121 -3.31574,1.40781 -3.31574,0.13915 z"
       id="path3106" />
    <path
       style="fill:#000000"
       d="m 769.14286,423.58132 c 0,-0.78244 2.43924,-3.38577 5.42053,-5.78519 7.06883,-5.68917 8.25696,-7.81276 6.60393,-11.80353 -1.46497,-3.53675 -5.66956,-6.37022 -12.02446,-8.10329 -2.475,-0.67496 -3.90329,-1.44003 -3.17397,-1.70015 2.73708,-0.97623 10.52307,2.1566 14.3079,5.75702 3.05519,2.90633 3.86607,4.41386 3.86607,7.18749 0,2.93907 -0.85796,4.3212 -5.27642,8.49999 -6.34294,5.99889 -9.72358,8.06674 -9.72358,5.94766 z"
       id="path3104" />
    <path
       style="fill:#000000"
       d="m 525.64286,422.86402 c -1.1,-0.45017 -17.56744,-0.54831 -36.59432,-0.21807 -25.66903,0.44551 -34.77871,0.30207 -35.30902,-0.55599 -0.52667,-0.85217 2.65515,-1.15701 12.09432,-1.1587 7.04496,-0.001 23.15902,-0.2755 35.80902,-0.6094 19.73309,-0.52087 23.28386,-0.39012 24.99843,0.92054 2.3867,1.82444 1.80515,2.76897 -0.99843,1.62162 z"
       id="path3102" />
    <path
       style="fill:#000000"
       d="m 735.65609,420.42611 c -4.77875,-1.70169 -6.52073,-3.83074 -6.49127,-7.93368 0.039,-5.43632 6.79533,-17.50731 10.62071,-18.97525 2.82833,-1.08533 3.45354,0.55286 0.95967,2.51453 -2.85912,2.24899 -8.60234,13.20259 -8.60234,16.40658 0,3.71615 3.42841,5.77998 10.76818,6.48224 6.34118,0.60671 6.56846,0.71282 3.91672,1.82856 -3.60434,1.51655 -6.21802,1.44098 -11.17167,-0.32298 z"
       id="path3100" />
    <path
       style="fill:#000000"
       d="m 619.72834,420.07186 c -0.49846,-0.80651 1.28117,-1.15568 6.1055,-1.19791 3.74496,-0.0328 9.05902,-0.43419 11.80902,-0.89202 5.71331,-0.95115 6.60099,-0.70797 3.49109,0.9564 -3.11601,1.66764 -20.50637,2.58855 -21.40561,1.13353 z"
       id="path3098" />
    <path
       style="fill:#000000"
       d="m 751.59498,418.66939 c -0.29356,-0.76501 -0.0507,-2.66142 0.53967,-4.21423 0.91539,-2.40767 0.74907,-3.16854 -1.1298,-5.1685 -2.83408,-3.01675 -1.92319,-3.97568 1.33901,-1.40964 l 2.50632,1.97148 2.83343,-2.95747 c 1.55839,-1.62661 3.42424,-2.95747 4.14634,-2.95747 1.91726,0 1.60438,1.33688 -0.64106,2.73918 -1.07468,0.67115 -2.43327,2.11586 -3.01909,3.21048 -0.93297,1.74328 -0.56208,2.24685 2.98929,4.05862 2.22992,1.13762 3.7991,2.4815 3.48706,2.98639 -0.63692,1.03056 -2.8661,0.38317 -6.33863,-1.84084 -2.00894,-1.28664 -2.46104,-1.29709 -3.23469,-0.0748 -0.49464,0.78151 -0.90624,1.95687 -0.91466,2.61191 -0.0235,1.8252 -1.9607,2.61489 -2.56319,1.04485 z"
       id="path3096" />
    <path
       style="fill:#000000"
       d="m 941.82455,419.28192 c -0.37493,-0.37493 -0.68169,-2.84257 -0.68169,-5.48364 0,-3.55783 -0.34077,-4.67118 -1.31528,-4.29723 -0.72341,0.2776 -2.41091,0.0982 -3.75,-0.39873 -2.24899,-0.83453 -2.11098,-0.95833 1.8092,-1.62297 3.68537,-0.62483 4.3522,-1.13583 5.06665,-3.88266 l 0.82272,-3.16313 -7.3493,-0.29265 c -9.53183,-0.37956 -8.60712,-2.20735 1.11674,-2.20735 l 7.28269,0 1.19843,-4 c 1.46252,-4.88144 3.70014,-5.51348 2.65525,-0.75 -0.3921,1.7875 -0.81652,3.925 -0.94316,4.75 -0.12664,0.825 -0.76208,2.76679 -1.4121,4.3151 -1.5992,3.80924 -1.6943,3.6849 2.81816,3.6849 5.40632,0 5.07716,1.61138 -0.5,2.44773 l -4.5,0.67482 -0.0153,4.18872 c -0.0159,4.33899 -1.11633,7.22376 -2.303,6.03709 z"
       id="path3094" />
    <path
       style="fill:#000000"
       d="m 408.83671,416.29408 c -1.41999,-1.42 0.68511,-2.36052 5.28338,-2.36052 5.29831,0 8.02277,0.71551 8.02277,2.10699 0,1.00838 -12.31662,1.24306 -13.30615,0.25353 z"
       id="path3092" />
    <path
       style="fill:#000000"
       d="m 828.70762,415.03834 c -0.64199,-1.03875 1.69997,-2.10478 4.62402,-2.10478 1.5252,0 1.85468,-0.43205 1.33454,-1.75 -0.37986,-0.9625 -1.39711,-4.58049 -2.26055,-8.03997 l -1.56988,-6.28998 -2.83602,2.71707 c -1.5598,1.49439 -3.11471,2.43837 -3.45534,2.09774 -0.91237,-0.91237 5.77948,-10.83992 7.03138,-10.43126 0.5869,0.19159 1.79142,3.23915 2.67671,6.77237 3.63782,14.51856 3.7489,14.77348 6.58447,15.10965 1.45842,0.17291 2.83638,0.87688 3.06212,1.56438 0.48802,1.4862 -14.27905,1.83108 -15.19145,0.35478 z"
       id="path3090" />
    <path
       style="fill:#000000"
       d="m 613.14286,412.93356 c 0,-0.61111 4.66667,-1 12,-1 7.33333,0 12,0.38889 12,1 0,0.61111 -4.66667,1 -12,1 -7.33333,0 -12,-0.38889 -12,-1 z"
       id="path3088" />
    <path
       style="fill:#000000"
       d="m 797.14286,413.15057 c 0,-0.88676 13.89019,-3.66015 14.62936,-2.92098 0.26347,0.26347 -1.65052,1.20464 -4.2533,2.0915 -5.01336,1.70822 -10.37606,2.13693 -10.37606,0.82948 z"
       id="path3086" />
    <path
       style="fill:#000000"
       d="m 899.14286,412.23828 c 0,-0.93241 1.18155,-2.92855 2.62566,-4.43588 l 2.62566,-2.7406 -3.09802,-3.75843 c -3.99351,-4.84482 -3.1416,-5.72004 1.33982,-1.37648 l 3.46315,3.35662 L 911.17912,399 c 6.58972,-5.55654 7.69882,-4.39671 1.65922,1.7351 l -4.68395,4.75545 2.69121,2.6912 c 3.54363,3.54363 2.39784,4.54876 -1.47271,1.29192 l -3.0211,-2.5421 -3.07391,3.501 c -3.46143,3.94234 -4.13502,4.23649 -4.13502,1.80571 z"
       id="path3084" />
    <path
       style="fill:#000000"
       d="m 984.87591,410.21052 c -3.93959,-0.58814 -2.34044,-2.27696 2.15605,-2.27696 l 3.77106,0 -2.07606,-7.38441 c -1.97166,-7.01306 -2.17546,-7.31479 -4.05259,-6 -1.08709,0.76142 -3.11389,1.3668 -4.50402,1.34527 -2.42613,-0.0376 -2.4023,-0.0936 0.59421,-1.39778 3.71838,-1.61833 6.3783,-5.10839 6.3783,-8.36892 0,-1.44254 0.48621,-2.19998 1.25,-1.9473 0.77269,0.25562 1.48494,3.27122 1.86527,7.89733 0.3384,4.11609 1.1259,8.43792 1.75,9.60407 0.6241,1.16614 1.13473,3.04984 1.13473,4.186 0,1.81222 0.61363,2.06574 5,2.06574 2.75004,0 5.00004,0.45 5.00004,1 0,0.5628 -2.8061,1 -6.41825,1 -3.53002,0 -7.01752,0.15526 -7.75,0.34502 -0.73249,0.18975 -2.57692,0.15913 -4.09874,-0.0681 z"
       id="path3082" />
    <path
       style="fill:#000000"
       d="m 460.52489,407.48674 c -0.35063,-0.91374 0.52791,-3.0574 2.09512,-5.11211 2.57422,-3.37497 2.64406,-3.76735 1.51116,-8.48979 -0.65328,-2.72321 -1.53222,-4.95128 -1.95319,-4.95128 -0.42097,0 -1.97479,0.9513 -3.45292,2.114 -2.85253,2.2438 -4.66,1.81135 -3.04683,-0.72896 0.53055,-0.83547 2.20695,-2.27104 3.72535,-3.19016 3.74548,-2.26722 5.97041,-0.73462 7.08017,4.87705 0.81595,4.126 0.94528,4.25912 2.32997,2.39828 0.80634,-1.08362 1.82321,-2.59089 2.25972,-3.34951 0.4365,-0.75861 1.31014,-1.20713 1.94143,-0.9967 0.72533,0.24178 0.18331,1.80195 -1.47267,4.23895 -2.36401,3.47895 -2.49045,4.11473 -1.29198,6.4967 0.73065,1.45219 1.4929,2.97785 1.69389,3.39035 0.67254,1.38034 -1.63904,0.76935 -3.27368,-0.86529 -1.48706,-1.48706 -1.77059,-1.47475 -3.57143,0.15499 -1.07588,0.97365 -1.95614,2.34897 -1.95614,3.05627 0,2.00223 -1.94418,2.71308 -2.61797,0.95721 z"
       id="path3080" />
    <path
       style="fill:#000000"
       d="m 803.9039,407.36765 c -0.40642,-0.40994 -2.43142,-1.02044 -4.5,-1.35668 -5.08727,-0.82691 -4.24037,-2.66368 1.03099,-2.23602 4.88288,0.39614 4.99441,0.46163 4.54637,2.67005 -0.18612,0.91739 -0.67093,1.33258 -1.07736,0.92265 z"
       id="path3078" />
    <path
       style="fill:#000000"
       d="m 511.14286,403.93356 c 0,-0.55 0.675,-1 1.5,-1 1.18307,0 1.5,-1.40611 1.5,-6.65499 0,-6.59842 -0.017,-6.63956 -2.00613,-4.83946 -2.80904,2.54214 -3.5998,1.16892 -1.26569,-2.19798 1.0705,-1.54416 2.23047,-3.59507 2.57771,-4.55757 1.76587,-4.89477 3.23398,0.0238 3.95074,13.23601 0.20081,3.70148 0.59313,4.50225 2.24337,4.57894 5.30325,0.24646 6.5,0.51067 6.5,1.43505 0,0.57778 -3.16667,1 -7.5,1 -4.33333,0 -7.5,-0.42222 -7.5,-1 z"
       id="path3076" />
    <path
       style="fill:#000000"
       d="m 71.618389,402.68356 c -0.917186,-2.48319 1.008538,-45.77287 2.024466,-45.50937 0.634198,0.16449 0.942466,8.21557 0.842719,22.00937 -0.178358,24.66462 -0.963579,22.86944 8.804366,20.12869 5.292847,-1.48509 10.096591,-1.28903 8.462177,0.34538 -1.33752,1.33752 -12.18656,4.24678 -15.890647,4.2612 -2.124254,0.008 -3.983716,-0.53306 -4.243081,-1.23527 z"
       id="path3074" />
    <path
       style="fill:#000000"
       d="m 100.22612,399.65255 c -1.463309,-3.84878 -2.466797,-19.71899 -1.246855,-19.71899 1.094415,0 1.597025,2.25916 2.669725,12 0.33313,3.025 0.85432,6.5125 1.15819,7.75 0.73168,2.97969 -1.44635,2.95353 -2.58106,-0.031 z"
       id="path3072" />
    <path
       style="fill:#000000"
       d="m 113.26118,397.18356 c -1.62986,-6.37476 -2.37748,-14.25 -1.3528,-14.25 0.52426,0 1.40737,2.3625 1.96246,5.25 l 1.00927,5.25 0.13138,-4.17857 c 0.13269,-4.22065 2.37484,-7.73166 4.49744,-7.04261 0.62366,0.20245 2.2159,2.31236 3.53831,4.68868 l 2.40439,4.32059 1.77782,-3.46534 c 4.14933,-8.08788 7.1349,-7.52003 9.2516,1.75964 0.84304,3.69592 2.11172,7.07763 2.81928,7.51493 0.98978,0.61172 0.90039,0.94325 -0.38761,1.4375 -2.61176,1.00222 -3.59833,-0.20147 -4.35065,-5.30813 -0.38299,-2.59968 -1.02272,-5.62582 -1.42162,-6.72476 -0.66178,-1.82315 -0.90212,-1.70726 -2.74542,1.32381 -1.11109,1.82704 -2.3081,5.12259 -2.66004,7.32345 -0.35948,2.24811 -1.12284,3.84057 -1.74205,3.63417 -0.6062,-0.20207 -2.05796,-2.9165 -3.22613,-6.03207 -3.32847,-8.87718 -4.33268,-9.09559 -5.10367,-1.11005 -0.36421,3.77232 -0.84115,7.42126 -1.05986,8.10876 -0.77053,2.42212 -2.39418,1.20758 -3.3421,-2.5 z"
       id="path3070" />
    <path
       style="fill:#000000"
       d="m 482.14286,400.05856 c 0,-0.99577 4.84906,-2.125 9.125,-2.125 4.57402,0 3.33074,1.66569 -1.76457,2.36408 -6.14916,0.84283 -7.36043,0.80349 -7.36043,-0.23908 z"
       id="path3068" />
    <path
       style="fill:#000000"
       d="m 148.31767,398.64419 c -1.49642,-1.80307 -3.12127,-9.36452 -3.15036,-14.66063 -0.0339,-6.16858 1.51179,-4.13102 3.37575,4.45 0.8363,3.85 1.81585,8.0125 2.1768,9.25 0.71839,2.46299 -0.68844,3.02557 -2.40219,0.96063 z"
       id="path3066" />
    <path
       style="fill:#000000"
       d="m 162.71128,393.72778 c -0.86263,-1.23158 -1.56842,-2.96411 -1.56842,-3.85006 0,-0.88595 -0.3375,-1.94833 -0.75,-2.36083 -0.4125,-0.4125 -0.78213,-1.95 -0.82141,-3.41666 -0.0393,-1.46667 -0.43596,-5.76731 -0.88152,-9.55697 -1.02244,-8.69622 0.69045,-8.252 2.37504,0.61595 1.96504,10.34434 1.71328,9.98047 6.64693,9.60651 5.7696,-0.43733 5.80666,1.51841 0.0411,2.16784 l -4.43896,0.5 1.3005,3.76139 c 1.50102,4.34135 0.39472,5.81362 -1.90324,2.53283 z"
       id="path3064" />
    <path
       style="fill:#000000"
       d="m 143.33102,375.19504 c 0.50201,-2.60673 3.81184,-2.89745 3.81184,-0.3348 0,1.43109 -0.64223,2.07332 -2.07332,2.07332 -1.4311,0 -1.96962,-0.53852 -1.73852,-1.73852 z"
       id="path3062" />
    <path
       style="fill:#000000"
       d="m 98.142855,373.35023 c 0,-1.42084 0.48375,-2.42209 1.075,-2.225 0.59125,0.19708 1.041255,0.68458 1.000005,1.08333 -0.0413,0.39875 -0.075,1.4 -0.075,2.225 0,0.825 -0.450005,1.5 -1.000005,1.5 -0.55,0 -1,-1.1625 -1,-2.58333 z"
       id="path3058" />
  </g>
</svg>
